<svg xmlns="http://www.w3.org/2000/svg" version="1.1" xmlns:xlink="http://www.w3.org/1999/xlink" xmlns:svgjs="http://svgjs.dev/svgjs" width="2000" height="318" viewBox="0 0 2000 318"><g transform="matrix(1,0,0,1,-1.2105661590493355,-0.9908540192606381)"><svg viewBox="0 0 396 63" data-background-color="#1e1e2c" preserveAspectRatio="xMidYMid meet" height="318" width="2000" xmlns="http://www.w3.org/2000/svg" xmlns:xlink="http://www.w3.org/1999/xlink"><g id="tight-bounds" transform="matrix(1,0,0,1,0.2403079005082418,0.19630126796673153)"><svg viewBox="0 0 395.52 62.60739746406652" height="62.60739746406652" width="395.52"><g><svg viewBox="0 0 485.4977926529588 76.85010435009798" height="62.60739746406652" width="395.52"><g transform="matrix(1,0,0,1,0,10.621107041149578)"><svg viewBox="0 0 395.52 55.60789026779882" height="55.60789026779882" width="395.52"><g id="textblocktransform"><svg viewBox="0 0 395.52 55.60789026779882" height="55.60789026779882" width="395.52" id="textblock"><g><svg viewBox="0 0 395.52 55.60789026779882" height="55.60789026779882" width="395.52"><g transform="matrix(1,0,0,1,0,0)"><svg width="395.52" viewBox="-0.22 -32.4 299 42.04" height="55.60789026779882" data-palette-color="#ffffff"><path d="M19.65-9.5L22.29-8.35Q20.19-4.25 16.85-1.84 13.5 0.56 9.2 0.56L9.2 0.56Q5.86 0.56 3.83-0.82 1.81-2.2 0.81-4.47-0.2-6.74-0.22-9.72-0.24-12.7 0.44-15.89L0.44-15.89Q1.15-19.09 2.43-22.07 3.71-25.05 5.68-27.34 7.64-29.64 10.24-31.02 12.84-32.4 16.21-32.4L16.21-32.4Q19.14-32.4 21.02-31.35 22.9-30.3 23.46-28.15L23.46-28.15 24.24-31.86 27.1-31.86 24.85-21.41 22-21.41Q22.41-23.1 22.06-24.6 21.7-26.1 20.85-27.2 20-28.3 18.63-28.92 17.26-29.54 15.6-29.54L15.6-29.54Q12.99-29.54 11.05-28.32 9.11-27.1 7.65-25.12 6.2-23.14 5.25-20.73 4.3-18.31 3.81-15.89L3.81-15.89Q3.3-13.5 3.2-11.07 3.1-8.64 3.72-6.7 4.35-4.76 5.77-3.53 7.2-2.29 9.79-2.29L9.79-2.29Q15.75-2.29 19.65-9.5L19.65-9.5ZM50.63-11.3L50.63-11.3Q50.05-8.64 48.74-6.47 47.43-4.3 45.54-2.75 43.65-1.2 41.25-0.32 38.84 0.56 36.13 0.56L36.13 0.56Q33.49 0.56 31.49-0.32 29.49-1.2 28.24-2.75 27-4.3 26.6-6.47 26.19-8.64 26.8-11.3L26.8-11.3Q27.34-13.89 28.67-16.13 30-18.36 31.89-19.93 33.79-21.51 36.19-22.4 38.6-23.29 41.23-23.29L41.23-23.29Q43.94-23.29 45.94-22.4 47.95-21.51 49.19-19.93 50.44-18.36 50.82-16.13 51.19-13.89 50.63-11.3ZM47.29-11.3L47.29-11.3Q47.7-13.26 47.47-14.9 47.24-16.55 46.36-17.8 45.48-19.04 44.04-19.75 42.6-20.46 40.6-20.46L40.6-20.46Q38.6-20.46 36.84-19.75 35.08-19.04 33.74-17.8 32.39-16.55 31.47-14.9 30.54-13.26 30.15-11.3L30.15-11.3Q29.68-9.35 29.92-7.7 30.15-6.05 30.99-4.86 31.83-3.66 33.29-2.98 34.74-2.29 36.74-2.29L36.74-2.29Q38.74-2.29 40.49-2.98 42.23-3.66 43.61-4.86 44.99-6.05 45.92-7.7 46.85-9.35 47.29-11.3ZM80.49-31.86L73.73 0 70.38 0 70.8-2.1Q69.09-0.81 67.21-0.12 65.33 0.56 63.54 0.56L63.54 0.56Q60.83 0.56 58.88-0.32 56.93-1.2 55.78-2.77 54.63-4.35 54.3-6.54 53.97-8.74 54.54-11.35L54.54-11.35Q55.07-13.94 56.35-16.15 57.64-18.36 59.43-19.93 61.23-21.51 63.58-22.4 65.94-23.29 68.62-23.29L68.62-23.29Q70.43-23.29 72-22.64 73.58-22 74.73-20.7L74.73-20.7 76.53-29 71.99-29 72.58-31.86 80.49-31.86ZM71.48-5.3L74.09-17.46Q72.94-19.04 71.39-19.75 69.84-20.46 67.94-20.46L67.94-20.46Q65.94-20.46 64.27-19.75 62.59-19.04 61.31-17.82 60.03-16.6 59.16-14.95 58.3-13.31 57.88-11.35L57.88-11.35Q57.44-9.4 57.61-7.75 57.78-6.1 58.56-4.88 59.35-3.66 60.71-2.95 62.08-2.25 64.08-2.25L64.08-2.25Q67.94-2.25 71.48-5.3L71.48-5.3ZM104.63-10.21L84.98-10.21Q84.59-6.59 86.38-4.44 88.18-2.29 91.84-2.29L91.84-2.29Q94.38-2.29 96.6-3.34 98.82-4.39 100.19-5.96L100.19-5.96 102.17-4.35Q99.97-1.95 97.32-0.7 94.67 0.56 91.23 0.56L91.23 0.56Q88.57 0.56 86.58-0.32 84.59-1.2 83.31-2.77 82.02-4.35 81.6-6.52 81.17-8.69 81.78-11.35L81.78-11.35Q82.32-13.94 83.57-16.13 84.83-18.31 86.67-19.91 88.52-21.51 90.87-22.4 93.23-23.29 95.87-23.29L95.87-23.29Q98.77-23.29 100.72-22.31 102.68-21.34 103.78-19.62 104.88-17.9 105.05-15.5 105.22-13.11 104.63-10.21L104.63-10.21ZM85.64-13.06L101.68-13.06Q101.92-16.8 100.15-18.63 98.38-20.46 95.23-20.46L95.23-20.46Q93.62-20.46 92.14-19.93 90.67-19.41 89.42-18.43 88.18-17.46 87.18-16.08 86.17-14.7 85.64-13.06L85.64-13.06ZM127.21-31.86L131.07 0 127.48 0 126.38-9.11 113.76-9.11 108.93 0 105.31 0 122.67-31.86 127.21-31.86ZM115.37-12.06L126.06-12.06 124.21-28.49 115.37-12.06ZM154.87-5.96L156.87-4.35Q154.92-2.1 152.14-0.77 149.35 0.56 145.91 0.56L145.91 0.56Q143.27 0.56 141.25-0.32 139.22-1.2 137.96-2.77 136.71-4.35 136.28-6.52 135.85-8.69 136.46-11.35L136.46-11.35Q137.02-13.94 138.29-16.15 139.56-18.36 141.38-19.93 143.2-21.51 145.56-22.4 147.91-23.29 150.57-23.29L150.57-23.29Q151.62-23.29 152.65-23.05 153.67-22.8 154.54-22.3 155.41-21.8 156.03-21.11 156.65-20.41 156.87-19.46L156.87-19.46 157.56-22.75 160.56-22.75 158.65-13.65 155.65-13.65Q155.97-15.16 155.69-16.41 155.41-17.65 154.64-18.55 153.87-19.46 152.64-19.96 151.4-20.46 149.91-20.46L149.91-20.46Q147.86-20.46 146.19-19.75 144.52-19.04 143.24-17.82 141.96-16.6 141.09-14.95 140.22-13.31 139.81-11.35L139.81-11.35Q139.37-9.4 139.61-7.75 139.86-6.1 140.73-4.91 141.61-3.71 143.07-3 144.52-2.29 146.52-2.29L146.52-2.29Q149.06-2.29 151.26-3.3 153.45-4.3 154.87-5.96L154.87-5.96ZM162.61-6.15L162.61-6.15Q163.05-8.3 164.43-9.75 165.81-11.21 167.73-12.05 169.66-12.89 172.01-13.27 174.35-13.65 176.69-13.65L176.69-13.65Q177.6-13.65 178.31-13.62 179.01-13.6 179.66-13.55 180.31-13.5 180.93-13.43 181.55-13.35 182.36-13.26L182.36-13.26 182.7-14.89Q183.07-16.55 182.57-17.63 182.07-18.7 181.14-19.32 180.21-19.95 179.11-20.2 178.01-20.46 177.21-20.46L177.21-20.46Q174.64-20.46 172.37-19.78 170.1-19.09 168-17.94L168-17.94 167-20.46Q169.35-21.7 172.08-22.5 174.81-23.29 177.87-23.29L177.87-23.29Q179.7-23.29 181.41-22.81 183.11-22.34 184.31-21.35 185.51-20.36 186.01-18.75 186.51-17.14 186.04-14.89L186.04-14.89 182.9 0 179.55 0 180.36-3.81Q179.21-2.71 177.93-1.88 176.65-1.05 175.33-0.52 174.01 0 172.7 0.28 171.4 0.56 170.3 0.56L170.3 0.56Q165.81 0.56 163.85-1.17 161.9-2.91 162.61-6.15ZM170.91-2.29L170.91-2.29Q173.01-2.29 174.83-2.92 176.65-3.54 178-4.47 179.36-5.4 180.23-6.45 181.11-7.5 181.31-8.35L181.31-8.35 181.75-10.5Q180.16-10.74 178.66-10.77 177.16-10.79 176.06-10.79L176.06-10.79Q174.25-10.79 172.53-10.55 170.81-10.3 169.46-9.75 168.1-9.2 167.15-8.33 166.2-7.45 165.95-6.15L165.95-6.15Q165.61-4.71 166.76-3.5 167.9-2.29 170.91-2.29ZM216.95-31.86L210.19 0 206.84 0 207.26-2.1Q205.55-0.81 203.67-0.12 201.79 0.56 200.01 0.56L200.01 0.56Q197.3 0.56 195.34-0.32 193.39-1.2 192.24-2.77 191.1-4.35 190.77-6.54 190.44-8.74 191-11.35L191-11.35Q191.54-13.94 192.82-16.15 194.1-18.36 195.89-19.93 197.69-21.51 200.04-22.4 202.4-23.29 205.09-23.29L205.09-23.29Q206.89-23.29 208.47-22.64 210.04-22 211.19-20.7L211.19-20.7 213-29 208.45-29 209.04-31.86 216.95-31.86ZM207.94-5.3L210.55-17.46Q209.41-19.04 207.86-19.75 206.31-20.46 204.4-20.46L204.4-20.46Q202.4-20.46 200.73-19.75 199.05-19.04 197.77-17.82 196.49-16.6 195.62-14.95 194.76-13.31 194.34-11.35L194.34-11.35Q193.9-9.4 194.07-7.75 194.25-6.1 195.03-4.88 195.81-3.66 197.17-2.95 198.54-2.25 200.54-2.25L200.54-2.25Q204.4-2.25 207.94-5.3L207.94-5.3ZM241.09-10.21L221.44-10.21Q221.05-6.59 222.84-4.44 224.64-2.29 228.3-2.29L228.3-2.29Q230.84-2.29 233.06-3.34 235.28-4.39 236.65-5.96L236.65-5.96 238.63-4.35Q236.43-1.95 233.78-0.7 231.13 0.56 227.69 0.56L227.69 0.56Q225.03 0.56 223.04-0.32 221.05-1.2 219.77-2.77 218.49-4.35 218.06-6.52 217.63-8.69 218.24-11.35L218.24-11.35Q218.78-13.94 220.04-16.13 221.29-18.31 223.14-19.91 224.98-21.51 227.34-22.4 229.69-23.29 232.33-23.29L232.33-23.29Q235.23-23.29 237.19-22.31 239.14-21.34 240.24-19.62 241.34-17.9 241.51-15.5 241.68-13.11 241.09-10.21L241.09-10.21ZM222.1-13.06L238.14-13.06Q238.38-16.8 236.61-18.63 234.84-20.46 231.69-20.46L231.69-20.46Q230.08-20.46 228.61-19.93 227.13-19.41 225.88-18.43 224.64-17.46 223.64-16.08 222.64-14.7 222.1-13.06L222.1-13.06ZM269.44-16.36L265.99 0 262.62 0 266.09-16.36Q266.48-18.31 266.03-19.38 265.58-20.46 264.28-20.46L264.28-20.46Q262.38-20.46 261.06-18.46 259.74-16.46 258.99-12.84L258.99-12.84 256.28 0 252.93 0 256.37-16.36Q256.79-18.31 256.31-19.38 255.84-20.46 254.54-20.46L254.54-20.46Q253.32-20.46 252.48-19.75 251.64-19.04 251.02-17.94 250.39-16.85 249.99-15.5 249.59-14.16 249.29-12.84L249.29-12.84 246.58 0 243.24 0 248.02-22.75 251.39-22.75 250.69-19.46Q252.59-23.29 256.08-23.29L256.08-23.29Q259.43-23.29 259.89-19.95L259.89-19.95Q262.28-23.29 265.33-23.29L265.33-23.29Q268.24-23.29 269.22-21.57 270.19-19.85 269.44-16.36L269.44-16.36ZM294.77-22.75L298.78-22.75 280.42 5.76Q278.98 8.15 277.07 8.9 275.17 9.64 273.07 9.64L273.07 9.64Q270.73 9.64 268.63 8.79L268.63 8.79 269.87 5.91Q270.87 6.4 271.95 6.6 273.02 6.81 273.73 6.81L273.73 6.81Q275.37 6.81 276.15 6.01 276.93 5.2 277.64 4.1L277.64 4.1 279.78 0.66 274.58-22.75 278.52-22.75 282.52-2.86 294.77-22.75Z" opacity="1" transform="matrix(1,0,0,1,0,0)" fill="#ffffff" class="wordmark-text-0" data-fill-palette-color="primary" id="text-0"></path></svg></g></svg></g></svg></g></svg></g><g transform="matrix(1,0,0,1,408.64768830286084,0)"><svg viewBox="0 0 76.85010435009798 76.85010435009798" height="76.85010435009798" width="76.85010435009798"><g data-palette-color="#fea93f"><rect width="21.00569518902678" height="76.85010435009798" fill="#fea93f" stroke="transparent" data-fill-palette-color="accent" x="0" fill-opacity="1"></rect><rect width="21.00569518902678" height="76.85010435009798" fill="#fea93f" stroke="transparent" data-fill-palette-color="accent" x="25.61670145003266" fill-opacity="0.75"></rect><rect width="21.00569518902678" height="76.85010435009798" fill="#fea93f" stroke="transparent" data-fill-palette-color="accent" x="51.23340290006532" fill-opacity="0.5"></rect></g></svg></g></svg></g><defs></defs></svg><rect width="395.52" height="62.60739746406652" fill="none" stroke="none" visibility="hidden"></rect></g></svg></g></svg>